<svg viewBox="0 0 28 28" fill="none" xmlns="http://www.w3.org/2000/svg">
<path d="M25.6693 13.9997C25.6693 20.443 20.4459 25.6663 14.0026 25.6663M25.6693 13.9997C25.6693 7.55635 20.4459 2.33301 14.0026 2.33301M25.6693 13.9997H2.33594M14.0026 25.6663C7.55928 25.6663 2.33594 20.443 2.33594 13.9997M14.0026 25.6663C16.9208 22.4716 18.5791 18.3256 18.6693 13.9997C18.5791 9.67371 16.9208 5.52775 14.0026 2.33301M14.0026 25.6663C11.0844 22.4716 9.42606 18.3256 9.33594 13.9997C9.42606 9.67371 11.0844 5.52775 14.0026 2.33301M2.33594 13.9997C2.33594 7.55635 7.55928 2.33301 14.0026 2.33301" stroke="url(#paint0_linear_3403_17)" stroke-linecap="round" stroke-linejoin="round"/>
<defs>
<linearGradient id="paint0_linear_3403_17" x1="14.0027" y1="25.9998" x2="14.0027" y2="1.99976" gradientUnits="userSpaceOnUse">
<stop stop-color="#93dbe9"/>
<stop offset="0.488572" stop-color="#795B40"/>
<stop offset="1" stop-color="#93dbe9"/>
</linearGradient>
</defs>
</svg>
