<svg width="0" height="0" class="hidden">
  <symbol  xmlns="http://www.w3.org/2000/svg" viewBox="0 0 36 37" id="insta">
    <rect x="0.5" y="0.765625" width="35" height="35" rx="17.5" stroke="#81818B" stroke-opacity="0.9"></rect>
    <path fill-rule="evenodd" clip-rule="evenodd" d="M14.8 10.75H21.2C23.851 10.75 26 12.899 26 15.55V21.95C26 24.601 23.851 26.75 21.2 26.75H14.8C12.149 26.75 10 24.601 10 21.95V15.55C10 12.899 12.149 10.75 14.8 10.75ZM14.8 12.35C13.0327 12.35 11.6 13.7827 11.6 15.55V21.95C11.6 23.7173 13.0327 25.15 14.8 25.15H21.2C22.9673 25.15 24.4 23.7173 24.4 21.95V15.55C24.4 13.7827 22.9673 12.35 21.2 12.35H14.8ZM18 22.75C15.7909 22.75 14 20.9591 14 18.75C14 16.5409 15.7909 14.75 18 14.75C20.2091 14.75 22 16.5409 22 18.75C22 20.9591 20.2091 22.75 18 22.75ZM18 21.15C19.3255 21.15 20.4 20.0755 20.4 18.75C20.4 17.4245 19.3255 16.35 18 16.35C16.6745 16.35 15.6 17.4245 15.6 18.75C15.6 20.0755 16.6745 21.15 18 21.15ZM22 15.55C21.5582 15.55 21.2 15.1918 21.2 14.75C21.2 14.3082 21.5582 13.95 22 13.95C22.4418 13.95 22.8 14.3082 22.8 14.75C22.8 15.1918 22.4418 15.55 22 15.55Z" fill="#75757F"></path>
  </symbol>
  <symbol  xmlns="http://www.w3.org/2000/svg" viewBox="0 0 36 37" id="youtube">
    <rect x="0.5" y="0.765625" width="35" height="35" rx="17.5" stroke="#81818B" stroke-opacity="0.9"></rect>
    <path d="M25.6657 14.6276C25.4817 13.8885 24.9395 13.3065 24.2511 13.1089C23.0033 12.75 18 12.75 18 12.75C18 12.75 12.9967 12.75 11.7489 13.1089C11.0605 13.3065 10.5183 13.8885 10.3343 14.6276C10 15.9672 10 18.7621 10 18.7621C10 18.7621 10 21.5571 10.3343 22.8967C10.5183 23.6357 11.0605 24.1935 11.7489 24.3911C12.9967 24.75 18 24.75 18 24.75C18 24.75 23.0033 24.75 24.2511 24.3911C24.9395 24.1935 25.4817 23.6357 25.6657 22.8967C26 21.5571 26 18.7621 26 18.7621C26 18.7621 26 15.9672 25.6657 14.6276ZM16.3636 21.2997V16.2245L20.5454 18.7622L16.3636 21.2997Z" fill="#75757F"></path>
  </symbol>
  <symbol  xmlns="http://www.w3.org/2000/svg" viewBox="0 0 36 37" id="twiter">
    <rect x="0.5" y="0.765625" width="35" height="35" rx="17.5" stroke="#81818B" stroke-opacity="0.9"></rect>
    <path d="M23.359 14.651C23.9874 14.2433 24.4035 13.6869 24.6072 12.9793C23.9959 13.322 23.387 13.5571 22.7788 13.6869C22.232 13.0656 21.5399 12.75 20.71 12.75C19.8988 12.75 19.2137 13.0508 18.6545 13.636C18.0984 14.2252 17.8176 14.9411 17.8176 15.7769C17.8176 16.0309 17.848 16.2577 17.9086 16.45C15.5163 16.3637 13.5362 15.315 11.9761 13.2965C11.7116 13.7905 11.5794 14.2935 11.5794 14.8137C11.5794 15.8829 12.0064 16.7303 12.8588 17.3524C12.3727 17.3089 11.9442 17.179 11.5794 16.9661C11.5794 17.7297 11.7917 18.3674 12.2172 18.9288C12.6441 19.4843 13.1924 19.8386 13.8621 19.9898C13.6194 20.0555 13.3635 20.0868 13.1007 20.0868C12.858 20.0868 12.6861 20.0654 12.5842 20.0185C12.7631 20.6407 13.1007 21.1453 13.5883 21.5316C14.0744 21.9195 14.6336 22.1242 15.262 22.1422C14.226 23.0011 13.0416 23.426 11.7015 23.426C11.3733 23.426 11.1408 23.421 11 23.3947C12.3198 24.3004 13.789 24.75 15.4144 24.75C17.078 24.75 18.5479 24.3046 19.8273 23.4137C21.1067 22.5277 22.0508 21.4346 22.6575 20.1476C23.2672 18.8622 23.569 17.5242 23.569 16.127V15.7424C24.1585 15.2739 24.6352 14.7463 25 14.1636C24.4711 14.4044 23.9244 14.568 23.359 14.651Z" fill="#75757F"></path>
  </symbol>
  <symbol  xmlns="http://www.w3.org/2000/svg" viewBox="0 0 36 37" id="fsbook">
    <rect x="0.5" y="0.765625" width="35" height="35" rx="17.5" stroke="#81818B" stroke-opacity="0.9"></rect>
    <path d="M20.5625 19.2167L21 16.8833L18.8125 16.8838V15.0167C18.8125 14.2961 19.1555 14.0833 20.125 14.0833H21V11.75C21 11.75 20.1031 11.75 19.25 11.75C17.4685 11.75 16.1875 12.8863 16.1875 15.0167V16.8833H14V19.2167H16.1875V25.75H18.8125V19.2167H20.5625Z" fill="#75757F"></path>
  </symbol>
  <symbol  xmlns="http://www.w3.org/2000/svg" viewBox="0 0 36 37" id="linkedin">
    <rect x="0.5" y="0.765625" width="35" height="35" rx="17.5" stroke="#81818B" stroke-opacity="0.9"></rect>
    <path d="M14.205 12.4998C14.2048 12.8976 14.0466 13.2791 13.7651 13.5602C13.4837 13.8414 13.1021 13.9992 12.7042 13.999C12.3064 13.9988 11.925 13.8406 11.6438 13.5592C11.3626 13.2777 11.2048 12.8961 11.205 12.4983C11.2052 12.1004 11.3634 11.719 11.6449 11.4378C11.9263 11.1567 12.3079 10.9988 12.7057 10.999C13.1036 10.9992 13.485 11.1574 13.7662 11.4389C14.0473 11.7203 14.2052 12.1019 14.205 12.4998ZM14.25 15.1098H11.25V24.4998H14.25V15.1098ZM18.99 15.1098H16.005V24.4998H18.96V19.5723C18.96 16.8273 22.5375 16.5723 22.5375 19.5723V24.4998H25.5V18.5523C25.5 13.9248 20.205 14.0973 18.96 16.3698L18.99 15.1098Z" fill="#75757F"></path>
  </symbol>
</svg>