<svg width="0" height="0" class="hidden">
  <symbol fill="white" xmlns="http://www.w3.org/2000/svg" viewBox="0 0 23 22" id="Face">
    <g clip-path="url(#clip0_5_420)">
      <path d="M2.97332 21.2559V10.7763H0.339111V7.16498L2.97332 7.16334L2.96964 5.03633C2.96964 2.09019 3.7687 0.296795 7.23882 0.296795H10.8186V3.90978H8.32198C6.97028 3.90978 6.90601 4.4141 6.90601 5.35563L6.90069 7.16334H10.8526L10.4703 10.7751L6.90315 10.7763L6.90069 21.2559H2.97332Z" fill="white"></path>
    </g>
    <defs>
      <clipPath id="clip0_5_420">
        <rect width="21.8125" height="21"  transform="matrix(1 0 0 -1 0.3125 21.2969)"></rect>
      </clipPath>
    </defs>
  </symbol>
  <symbol fill="white" xmlns="http://www.w3.org/2000/svg" viewBox="0 0 19 19" id="inst">
    <path d="M9.3125 4.70508C6.6875 4.70508 4.5957 6.83789 4.5957 9.42188C4.5957 12.0469 6.6875 14.1387 9.3125 14.1387C11.8965 14.1387 14.0293 12.0469 14.0293 9.42188C14.0293 6.83789 11.8965 4.70508 9.3125 4.70508ZM9.3125 12.498C7.63086 12.498 6.23633 11.1445 6.23633 9.42188C6.23633 7.74023 7.58984 6.38672 9.3125 6.38672C10.9941 6.38672 12.3477 7.74023 12.3477 9.42188C12.3477 11.1445 10.9941 12.498 9.3125 12.498ZM15.3008 4.54102C15.3008 3.92578 14.8086 3.43359 14.1934 3.43359C13.5781 3.43359 13.0859 3.92578 13.0859 4.54102C13.0859 5.15625 13.5781 5.64844 14.1934 5.64844C14.8086 5.64844 15.3008 5.15625 15.3008 4.54102ZM18.418 5.64844C18.3359 4.17188 18.0078 2.85938 16.9414 1.79297C15.875 0.726562 14.5625 0.398438 13.0859 0.316406C11.5684 0.234375 7.01562 0.234375 5.49805 0.316406C4.02148 0.398438 2.75 0.726562 1.64258 1.79297C0.576172 2.85938 0.248047 4.17188 0.166016 5.64844C0.0839844 7.16602 0.0839844 11.7188 0.166016 13.2363C0.248047 14.7129 0.576172 15.9844 1.64258 17.0918C2.75 18.1582 4.02148 18.4863 5.49805 18.5684C7.01562 18.6504 11.5684 18.6504 13.0859 18.5684C14.5625 18.4863 15.875 18.1582 16.9414 17.0918C18.0078 15.9844 18.3359 14.7129 18.418 13.2363C18.5 11.7188 18.5 7.16602 18.418 5.64844ZM16.4492 14.8359C16.1621 15.6562 15.5059 16.2715 14.7266 16.5996C13.4961 17.0918 10.625 16.9688 9.3125 16.9688C7.95898 16.9688 5.08789 17.0918 3.89844 16.5996C3.07812 16.2715 2.46289 15.6562 2.13477 14.8359C1.64258 13.6465 1.76562 10.7754 1.76562 9.42188C1.76562 8.10938 1.64258 5.23828 2.13477 4.00781C2.46289 3.22852 3.07812 2.61328 3.89844 2.28516C5.08789 1.79297 7.95898 1.91602 9.3125 1.91602C10.625 1.91602 13.4961 1.79297 14.7266 2.28516C15.5059 2.57227 16.1211 3.22852 16.4492 4.00781C16.9414 5.23828 16.8184 8.10938 16.8184 9.42188C16.8184 10.7754 16.9414 13.6465 16.4492 14.8359Z" fill="white"></path>
  </symbol>
  <symbol fill="white" xmlns="http://www.w3.org/2000/svg" viewBox="0 0 19 22" id="tikTok">
    <path d="M18.875 9.53516V5.9668C18.834 5.9668 18.834 5.9668 18.834 5.9668C17.8496 5.9668 16.9062 5.67969 16.127 5.14648C14.9785 4.4082 14.1582 3.21875 13.9121 1.86523C13.8301 1.57812 13.8301 1.29102 13.8301 1.00391C13.8301 0.962891 13.8301 0.962891 13.8301 0.921875H10.2207V15.2773C10.2207 16.959 8.82617 18.3535 7.14453 18.3535C5.46289 18.3535 4.06836 16.959 4.06836 15.2773C4.06836 13.5957 5.46289 12.2012 7.14453 12.2012C7.47266 12.2012 7.75977 12.2422 8.08789 12.3652V8.67383C7.75977 8.63281 7.47266 8.5918 7.14453 8.5918C3.45312 8.5918 0.5 11.5859 0.5 15.2773C0.5 18.9688 3.45312 21.9219 7.14453 21.9219C10.8359 21.9219 13.8301 18.9688 13.8301 15.2773V7.93555C15.2246 8.96094 16.9473 9.53516 18.834 9.53516H18.875Z" fill="white"></path>
  </symbol>
  <symbol fill="white" xmlns="http://www.w3.org/2000/svg" viewBox="0 0 23 17" id="youT">
    <path d="M22.2051 3.04883C21.959 2.06445 21.1797 1.28516 20.2363 1.03906C18.4727 0.546875 11.5 0.546875 11.5 0.546875C11.5 0.546875 4.48633 0.546875 2.72266 1.03906C1.7793 1.28516 1 2.06445 0.753906 3.04883C0.261719 4.77148 0.261719 8.46289 0.261719 8.46289C0.261719 8.46289 0.261719 12.1133 0.753906 13.877C1 14.8613 1.7793 15.5996 2.72266 15.8457C4.48633 16.2969 11.5 16.2969 11.5 16.2969C11.5 16.2969 18.4727 16.2969 20.2363 15.8457C21.1797 15.5996 21.959 14.8613 22.2051 13.877C22.6973 12.1133 22.6973 8.46289 22.6973 8.46289C22.6973 8.46289 22.6973 4.77148 22.2051 3.04883ZM9.20312 11.7852V5.14062L15.0273 8.46289L9.20312 11.7852Z" fill="white"></path>
  </symbol>
</svg>