<svg width="0" height="0" class="hidden">
  <symbol fill="none" xmlns="http://www.w3.org/2000/svg" viewBox="0 0 30 30" id="tiktok-dark">
    <path d="M21.1952 7.59425C20.1312 6.35717 19.5737 4.7586 19.6178 3.13102L15.6412 3.03516V20.0541C14.5706 24.8251 7.66571 23.5802 8.35691 18.726C8.74261 16.5086 11.1247 15.1444 13.2419 15.9156V11.8582C8.63288 11.0558 4.26499 14.7241 4.31091 19.3978C4.71377 29.5333 19.2513 29.5348 19.6546 19.3978C19.553 19.035 19.6097 12.2805 19.5954 11.7109C21.405 12.8362 23.5082 13.3986 25.638 13.3266V9.13607C23.6683 9.13607 22.1651 8.61238 21.1952 7.59425Z" stroke="url(#paint0_linear_2540_418)"></path>
    <defs>
      <linearGradient id="paint0_linear_2540_418" x1="14.886" y1="3.64171" x2="14.886" y2="26.3931" gradientUnits="userSpaceOnUse">
        <stop stop-color="#AD8152"></stop>
        <stop offset="0.511428" stop-color="#795B40"></stop>
        <stop offset="1" stop-color="#A28A72"></stop>
      </linearGradient>
    </defs>
  </symbol>
  <symbol fill="none" xmlns="http://www.w3.org/2000/svg" viewBox="0 0 30 30" id="youtube-dark">
    <path d="M26.2628 7.5033L26.2556 7.4961C18.581 5.9721 10.9685 6.0492 3.74387 7.4868L3.74327 7.5042C2.72837 12.6174 2.77847 17.6901 3.73697 22.5045H3.74327C11.4182 24.0288 19.0301 23.9517 26.255 22.5135L26.2562 22.5039C27.2717 17.3901 27.2213 12.3174 26.2628 7.5033ZM19.0448 15.3864L12.8318 19.1145C12.4784 19.3269 12.1889 19.1628 12.1889 18.7506V11.2506C12.1889 10.8378 12.4784 10.674 12.8318 10.8858L19.0448 14.6148C19.3988 14.8269 19.3988 15.174 19.0448 15.3864Z" stroke="url(#paint0_linear_2540_413)" stroke-miterlimit="10" stroke-linecap="round" stroke-linejoin="round"></path>
    <defs>
      <linearGradient id="paint0_linear_2540_413" x1="14.9005" y1="6.81704" x2="14.9005" y2="23.1835" gradientUnits="userSpaceOnUse">
        <stop stop-color="#AD8152"></stop>
        <stop offset="0.511428" stop-color="#795B40"></stop>
        <stop offset="1" stop-color="#A28A72"></stop>
      </linearGradient>
    </defs>
  </symbol>
  <symbol fill="none" xmlns="http://www.w3.org/2000/svg" viewBox="0 0 30 30" id="facebook-dark">
    <path d="M16.0077 9C16.0079 8.70349 16.0961 8.4137 16.2609 8.16724C16.4258 7.92078 16.66 7.72871 16.9339 7.61529C17.2079 7.50187 17.5093 7.4722 17.8002 7.53001C18.091 7.58782 18.3581 7.73053 18.5679 7.9401L21.75 4.758C21.1936 4.19984 20.5324 3.75718 19.8044 3.45548C19.0763 3.15378 18.2958 2.99898 17.5077 3C14.1939 3 11.5077 5.6862 11.5077 9V12.0003H8.25V15.75H11.5077V27H16.0077V15.75H19.2663V12.0003H16.0077V9Z" stroke="url(#paint0_linear_2540_404)" stroke-miterlimit="10" stroke-linecap="round" stroke-linejoin="round"></path>
    <defs>
      <linearGradient id="paint0_linear_2540_404" x1="14.9441" y1="3.60744" x2="14.9441" y2="26.3923" gradientUnits="userSpaceOnUse">
        <stop stop-color="#AD8152"></stop>
        <stop offset="0.511428" stop-color="#795B40"></stop>
        <stop offset="1" stop-color="#A28A72"></stop>
      </linearGradient>
    </defs>
  </symbol>
  <symbol fill="none" xmlns="http://www.w3.org/2000/svg" viewBox="0 0 30 30" id="instagram-dark">
    <path d="M22.5 3H7.5C5.0247 3 3 5.0247 3 7.5V22.4997C3 24.9747 5.0247 27 7.5 27H22.5C24.975 27 27 24.9747 27 22.4997V7.5C27 5.0247 24.975 3 22.5 3ZM15 20.9997C11.6865 20.9997 8.9997 18.3135 8.9997 14.9997C8.9997 11.6859 11.6865 8.9994 15 8.9994C18.3138 8.9994 21.0003 11.6859 21.0003 14.9997C21.0003 18.3135 18.3138 20.9997 15 20.9997ZM21.5625 9.7497C21.3884 9.75231 21.2156 9.72028 21.0541 9.65548C20.8925 9.59067 20.7454 9.49439 20.6215 9.37222C20.4975 9.25006 20.399 9.10445 20.3318 8.94388C20.2646 8.7833 20.23 8.61097 20.23 8.4369C20.23 8.26283 20.2647 8.0905 20.3319 7.92994C20.3991 7.76938 20.4976 7.6238 20.6217 7.50166C20.7457 7.37952 20.8928 7.28327 21.0543 7.2185C21.2159 7.15374 21.3887 7.12175 21.5628 7.1244C21.9075 7.12965 22.2363 7.27028 22.4782 7.51591C22.7201 7.76154 22.8556 8.09246 22.8556 8.4372C22.8556 8.78194 22.7199 9.11283 22.478 9.3584C22.236 9.60398 21.9072 9.74453 21.5625 9.7497Z" stroke="url(#paint0_linear_2540_407)" stroke-miterlimit="10" stroke-linecap="round" stroke-linejoin="round"></path>
    <defs>
      <linearGradient id="paint0_linear_2540_407" x1="14.9006" y1="3.60745" x2="14.9006" y2="26.3923" gradientUnits="userSpaceOnUse">
        <stop stop-color="#AD8152"></stop>
        <stop offset="0.511428" stop-color="#795B40"></stop>
        <stop offset="1" stop-color="#A28A72"></stop>
      </linearGradient>
    </defs>
  </symbol>
</svg>