<svg width="0" height="0" class="hidden">
  <symbol version="1.1" xmlns="http://www.w3.org/2000/svg" xmlns:xlink="http://www.w3.org/1999/xlink" viewBox="0 0 48 48" id="facebook-color-svgrepo">
    <title>Facebook-color</title>
    <desc>Created with Sketch.</desc>
    <defs></defs>
    <g id="Icons" stroke="none" stroke-width="1" fill="none" fill-rule="evenodd">
      <g id="Color-" transform="translate(-200.000000, -160.000000)" fill="#4460A0">
        <path d="M225.638355,208 L202.649232,208 C201.185673,208 200,206.813592 200,205.350603 L200,162.649211 C200,161.18585 201.185859,160 202.649232,160 L245.350955,160 C246.813955,160 248,161.18585 248,162.649211 L248,205.350603 C248,206.813778 246.813769,208 245.350955,208 L233.119305,208 L233.119305,189.411755 L239.358521,189.411755 L240.292755,182.167586 L233.119305,182.167586 L233.119305,177.542641 C233.119305,175.445287 233.701712,174.01601 236.70929,174.01601 L240.545311,174.014333 L240.545311,167.535091 C239.881886,167.446808 237.604784,167.24957 234.955552,167.24957 C229.424834,167.24957 225.638355,170.625526 225.638355,176.825209 L225.638355,182.167586 L219.383122,182.167586 L219.383122,189.411755 L225.638355,189.411755 L225.638355,208 L225.638355,208 Z" id="Facebook"></path>
      </g>
    </g>
  </symbol>
  <symbol fill="none" xmlns="http://www.w3.org/2000/svg" viewBox="0 0 48 48" id="instagram-svgrepo">
    <circle cx="24" cy="24" r="20" fill="#C13584"></circle>
    <path d="M24 14.1622C27.2041 14.1622 27.5837 14.1744 28.849 14.2321C30.019 14.2855 30.6544 14.481 31.0773 14.6453C31.6374 14.863 32.0371 15.123 32.457 15.5429C32.877 15.9629 33.137 16.3626 33.3547 16.9227C33.519 17.3456 33.7145 17.981 33.7679 19.1509C33.8256 20.4163 33.8378 20.7958 33.8378 23.9999C33.8378 27.2041 33.8256 27.5836 33.7679 28.849C33.7145 30.019 33.519 30.6543 33.3547 31.0772C33.137 31.6373 32.877 32.0371 32.4571 32.457C32.0371 32.8769 31.6374 33.1369 31.0773 33.3546C30.6544 33.519 30.019 33.7144 28.849 33.7678C27.5839 33.8255 27.2044 33.8378 24 33.8378C20.7956 33.8378 20.4162 33.8255 19.151 33.7678C17.981 33.7144 17.3456 33.519 16.9227 33.3546C16.3626 33.1369 15.9629 32.8769 15.543 32.457C15.1231 32.0371 14.863 31.6373 14.6453 31.0772C14.481 30.6543 14.2855 30.019 14.2321 28.849C14.1744 27.5836 14.1622 27.2041 14.1622 23.9999C14.1622 20.7958 14.1744 20.4163 14.2321 19.1509C14.2855 17.981 14.481 17.3456 14.6453 16.9227C14.863 16.3626 15.123 15.9629 15.543 15.543C15.9629 15.123 16.3626 14.863 16.9227 14.6453C17.3456 14.481 17.981 14.2855 19.151 14.2321C20.4163 14.1744 20.7959 14.1622 24 14.1622ZM24 12C20.741 12 20.3323 12.0138 19.0524 12.0722C17.7752 12.1305 16.9028 12.3333 16.1395 12.63C15.3504 12.9366 14.6812 13.3469 14.0141 14.0141C13.3469 14.6812 12.9366 15.3504 12.63 16.1395C12.3333 16.9028 12.1305 17.7751 12.0722 19.0524C12.0138 20.3323 12 20.741 12 23.9999C12 27.259 12.0138 27.6676 12.0722 28.9475C12.1305 30.2248 12.3333 31.0971 12.63 31.8604C12.9366 32.6495 13.3469 33.3187 14.0141 33.9859C14.6812 34.653 15.3504 35.0633 16.1395 35.3699C16.9028 35.6666 17.7752 35.8694 19.0524 35.9277C20.3323 35.9861 20.741 35.9999 24 35.9999C27.259 35.9999 27.6677 35.9861 28.9476 35.9277C30.2248 35.8694 31.0972 35.6666 31.8605 35.3699C32.6496 35.0633 33.3188 34.653 33.9859 33.9859C34.653 33.3187 35.0634 32.6495 35.37 31.8604C35.6667 31.0971 35.8695 30.2248 35.9278 28.9475C35.9862 27.6676 36 27.259 36 23.9999C36 20.741 35.9862 20.3323 35.9278 19.0524C35.8695 17.7751 35.6667 16.9028 35.37 16.1395C35.0634 15.3504 34.653 14.6812 33.9859 14.0141C33.3188 13.3469 32.6496 12.9366 31.8605 12.63C31.0972 12.3333 30.2248 12.1305 28.9476 12.0722C27.6677 12.0138 27.259 12 24 12Z" fill="white"></path>
    <path d="M24.0059 17.8433C20.6026 17.8433 17.8438 20.6021 17.8438 24.0054C17.8438 27.4087 20.6026 30.1675 24.0059 30.1675C27.4092 30.1675 30.1681 27.4087 30.1681 24.0054C30.1681 20.6021 27.4092 17.8433 24.0059 17.8433ZM24.0059 28.0054C21.7968 28.0054 20.0059 26.2145 20.0059 24.0054C20.0059 21.7963 21.7968 20.0054 24.0059 20.0054C26.2151 20.0054 28.0059 21.7963 28.0059 24.0054C28.0059 26.2145 26.2151 28.0054 24.0059 28.0054Z" fill="white"></path>
    <path d="M31.8507 17.5963C31.8507 18.3915 31.206 19.0363 30.4107 19.0363C29.6154 19.0363 28.9707 18.3915 28.9707 17.5963C28.9707 16.801 29.6154 16.1562 30.4107 16.1562C31.206 16.1562 31.8507 16.801 31.8507 17.5963Z" fill="white"></path>
  </symbol>
  <symbol fill="none" xmlns="http://www.w3.org/2000/svg" viewBox="0 0 32 32" id="tiktok-svgrepo">
    <path d="M8.45095 19.7926C8.60723 18.4987 9.1379 17.7743 10.1379 17.0317C11.5688 16.0259 13.3561 16.5948 13.3561 16.5948V13.2197C13.7907 13.2085 14.2254 13.2343 14.6551 13.2966V17.6401C14.6551 17.6401 12.8683 17.0712 11.4375 18.0775C10.438 18.8196 9.90623 19.5446 9.7505 20.8385C9.74562 21.5411 9.87747 22.4595 10.4847 23.2536C10.3345 23.1766 10.1815 23.0889 10.0256 22.9905C8.68807 22.0923 8.44444 20.7449 8.45095 19.7926ZM22.0352 6.97898C21.0509 5.90039 20.6786 4.81139 20.5441 4.04639H21.7823C21.7823 4.04639 21.5354 6.05224 23.3347 8.02482L23.3597 8.05134C22.8747 7.7463 22.43 7.38624 22.0352 6.97898ZM28 10.0369V14.293C28 14.293 26.42 14.2312 25.2507 13.9337C23.6179 13.5176 22.5685 12.8795 22.5685 12.8795C22.5685 12.8795 21.8436 12.4245 21.785 12.3928V21.1817C21.785 21.6711 21.651 22.8932 21.2424 23.9125C20.709 25.246 19.8859 26.1212 19.7345 26.3001C19.7345 26.3001 18.7334 27.4832 16.9672 28.28C15.3752 28.9987 13.9774 28.9805 13.5596 28.9987C13.5596 28.9987 11.1434 29.0944 8.96915 27.6814C8.49898 27.3699 8.06011 27.0172 7.6582 26.6277L7.66906 26.6355C9.84383 28.0485 12.2595 27.9528 12.2595 27.9528C12.6779 27.9346 14.0756 27.9528 15.6671 27.2341C17.4317 26.4374 18.4344 25.2543 18.4344 25.2543C18.5842 25.0754 19.4111 24.2001 19.9423 22.8662C20.3498 21.8474 20.4849 20.6247 20.4849 20.1354V11.3475C20.5435 11.3797 21.2679 11.8347 21.2679 11.8347C21.2679 11.8347 22.3179 12.4734 23.9506 12.8889C25.1204 13.1864 26.7 13.2483 26.7 13.2483V9.91314C27.2404 10.0343 27.7011 10.0671 28 10.0369Z" fill="#EE1D52"></path>
    <path d="M26.7009 9.91314V13.2472C26.7009 13.2472 25.1213 13.1853 23.9515 12.8879C22.3188 12.4718 21.2688 11.8337 21.2688 11.8337C21.2688 11.8337 20.5444 11.3787 20.4858 11.3464V20.1364C20.4858 20.6258 20.3518 21.8484 19.9432 22.8672C19.4098 24.2012 18.5867 25.0764 18.4353 25.2553C18.4353 25.2553 17.4337 26.4384 15.668 27.2352C14.0765 27.9539 12.6788 27.9357 12.2604 27.9539C12.2604 27.9539 9.84473 28.0496 7.66995 26.6366L7.6591 26.6288C7.42949 26.4064 7.21336 26.1717 7.01177 25.9257C6.31777 25.0795 5.89237 24.0789 5.78547 23.7934C5.78529 23.7922 5.78529 23.791 5.78547 23.7898C5.61347 23.2937 5.25209 22.1022 5.30147 20.9482C5.38883 18.9122 6.10507 17.6625 6.29444 17.3494C6.79597 16.4957 7.44828 15.7318 8.22233 15.0919C8.90538 14.5396 9.6796 14.1002 10.5132 13.7917C11.4144 13.4295 12.3794 13.2353 13.3565 13.2197V16.5948C13.3565 16.5948 11.5691 16.028 10.1388 17.0317C9.13879 17.7743 8.60812 18.4987 8.45185 19.7926C8.44534 20.7449 8.68897 22.0923 10.0254 22.991C10.1813 23.0898 10.3343 23.1775 10.4845 23.2541C10.7179 23.5576 11.0021 23.8221 11.3255 24.0368C12.631 24.8632 13.7249 24.9209 15.1238 24.3842C16.0565 24.0254 16.7586 23.2167 17.0842 22.3206C17.2888 21.7611 17.2861 21.1978 17.2861 20.6154V4.04639H20.5417C20.6763 4.81139 21.0485 5.90039 22.0328 6.97898C22.4276 7.38624 22.8724 7.7463 23.3573 8.05134C23.5006 8.19955 24.2331 8.93231 25.1734 9.38216C25.6596 9.61469 26.1722 9.79285 26.7009 9.91314Z" fill="#000000"></path>
    <path d="M4.48926 22.7568V22.7594L4.57004 22.9784C4.56076 22.9529 4.53074 22.8754 4.48926 22.7568Z" fill="#69C9D0"></path>
    <path d="M10.5128 13.7916C9.67919 14.1002 8.90498 14.5396 8.22192 15.0918C7.44763 15.7332 6.79548 16.4987 6.29458 17.354C6.10521 17.6661 5.38897 18.9168 5.30161 20.9528C5.25223 22.1068 5.61361 23.2983 5.78561 23.7944C5.78543 23.7956 5.78543 23.7968 5.78561 23.798C5.89413 24.081 6.31791 25.0815 7.01191 25.9303C7.2135 26.1763 7.42963 26.4111 7.65924 26.6334C6.92357 26.1457 6.26746 25.5562 5.71236 24.8839C5.02433 24.0451 4.60001 23.0549 4.48932 22.7626C4.48919 22.7605 4.48919 22.7584 4.48932 22.7564V22.7527C4.31677 22.2571 3.95431 21.0651 4.00477 19.9096C4.09213 17.8736 4.80838 16.6239 4.99775 16.3108C5.4985 15.4553 6.15067 14.6898 6.92509 14.0486C7.608 13.4961 8.38225 13.0567 9.21598 12.7484C9.73602 12.5416 10.2778 12.3891 10.8319 12.2934C11.6669 12.1537 12.5198 12.1415 13.3588 12.2575V13.2196C12.3808 13.2349 11.4148 13.4291 10.5128 13.7916Z" fill="#69C9D0"></path>
    <path d="M20.5438 4.04635H17.2881V20.6159C17.2881 21.1983 17.2881 21.76 17.0863 22.3211C16.7575 23.2167 16.058 24.0253 15.1258 24.3842C13.7265 24.923 12.6326 24.8632 11.3276 24.0368C11.0036 23.823 10.7187 23.5594 10.4844 23.2567C11.5962 23.8251 12.5913 23.8152 13.8241 23.341C14.7558 22.9821 15.4563 22.1734 15.784 21.2774C15.9891 20.7178 15.9864 20.1546 15.9864 19.5726V3H20.4819C20.4819 3 20.4315 3.41188 20.5438 4.04635ZM26.7002 8.99104V9.9131C26.1725 9.79263 25.6609 9.61447 25.1755 9.38213C24.2352 8.93228 23.5026 8.19952 23.3594 8.0513C23.5256 8.1559 23.6981 8.25106 23.8759 8.33629C25.0192 8.88339 26.1451 9.04669 26.7002 8.99104Z" fill="#69C9D0"></path>
  </symbol>
  <symbol version="1.1" xmlns="http://www.w3.org/2000/svg" xmlns:xlink="http://www.w3.org/1999/xlink" viewBox="0 -7 48 48" id="youtube-color-svgrepo">
    <title>Youtube-color</title>
    <desc>Created with Sketch.</desc>
    <defs></defs>
    <g id="Icons" stroke="none" stroke-width="1" fill="none" fill-rule="evenodd">
      <g id="Color-" transform="translate(-200.000000, -368.000000)" fill="#CE1312">
        <path d="M219.044,391.269916 L219.0425,377.687742 L232.0115,384.502244 L219.044,391.269916 Z M247.52,375.334163 C247.52,375.334163 247.0505,372.003199 245.612,370.536366 C243.7865,368.610299 241.7405,368.601235 240.803,368.489448 C234.086,368 224.0105,368 224.0105,368 L223.9895,368 C223.9895,368 213.914,368 207.197,368.489448 C206.258,368.601235 204.2135,368.610299 202.3865,370.536366 C200.948,372.003199 200.48,375.334163 200.48,375.334163 C200.48,375.334163 200,379.246723 200,383.157773 L200,386.82561 C200,390.73817 200.48,394.64922 200.48,394.64922 C200.48,394.64922 200.948,397.980184 202.3865,399.447016 C204.2135,401.373084 206.612,401.312658 207.68,401.513574 C211.52,401.885191 224,402 224,402 C224,402 234.086,401.984894 240.803,401.495446 C241.7405,401.382148 243.7865,401.373084 245.612,399.447016 C247.0505,397.980184 247.52,394.64922 247.52,394.64922 C247.52,394.64922 248,390.73817 248,386.82561 L248,383.157773 C248,379.246723 247.52,375.334163 247.52,375.334163 L247.52,375.334163 Z" id="Youtube"></path>
      </g>
    </g>
  </symbol>
</svg>