<svg width="84" height="65" viewBox="0 0 84 65" fill="none" xmlns="http://www.w3.org/2000/svg">
<circle cx="32.5" cy="32.5" r="32.5" fill="white"/>
<path d="M60.9659 57.9052L53.1382 16.8006H31.8C28.5978 16.8006 26 19.3967 26 22.6006C26 25.8022 28.5978 28.4 31.8 28.4H41.4669C42.5335 28.4 43.4 29.2665 43.4 30.3337C43.4 31.0303 43.0474 31.4868 42.8333 31.7002L38.3627 36.1709C38.1092 36.154 37.8604 36.1337 37.6035 36.1337H26V53.5326C26 56.7382 28.5978 59.3326 31.8 59.3326C34.3224 59.3326 36.4487 57.7167 37.245 55.4663H49.2V47.7326C49.2 43.1529 46.5378 39.2037 42.6849 37.3175L45.568 34.4343C46.6178 33.384 47.2674 31.934 47.2674 30.3337C47.2674 27.1298 44.6708 24.5337 41.4674 24.5337H31.8C30.7334 24.5337 29.8669 23.6672 29.8669 22.6006C29.8669 21.5317 30.7334 20.6669 31.8 20.6669H49.9366L56.9331 57.3994V63.1994H72.4V59.3326L60.9659 57.9052ZM31.8 55.4663C30.7334 55.4663 29.8669 54.6015 29.8669 53.5326C29.8669 52.4642 30.7334 51.5994 31.8 51.5994C32.8689 51.5994 33.7331 52.4642 33.7331 53.5326C33.7331 54.6015 32.8689 55.4663 31.8 55.4663ZM44.2572 43.8669H39.5331V47.7326H45.3331V51.5994H37.245C36.4487 49.3525 34.3224 47.7326 31.8 47.7326C31.1202 47.7326 30.4747 47.8724 29.8669 48.0875V40H37.6041C40.4507 40 42.9169 41.5672 44.2572 43.8669Z" fill="#F2BFF9"/>
<path d="M78.8671 35.8023C76.7298 35.8023 75.0002 37.5359 75.0002 39.6669H73.0671C73.0671 37.5359 71.334 35.8023 69.2002 35.8023V33.864C71.3381 33.864 73.0671 32.1309 73.0671 30H75.0002C75.0002 32.1309 76.7332 33.864 78.8671 33.864V35.8023Z" fill="#F1598F"/>
<path d="M69.0002 41.9C69.0002 43.5008 67.7033 44.8 66.1002 44.8C64.5029 44.8 63.2002 43.5008 63.2002 41.9C63.2002 40.2986 64.5029 39 66.1002 39C67.7033 39 69.0002 40.2986 69.0002 41.9Z" fill="#F1598F"/>
<path d="M74.0671 47.9337C74.0671 48.9986 73.1982 49.8669 72.1333 49.8669C71.0685 49.8669 70.2002 48.9986 70.2002 47.9337C70.2002 46.8688 71.0685 46 72.1333 46C73.1982 46 74.0671 46.8688 74.0671 47.9337Z" fill="#F1598F"/>
</svg>
